<?xml version="1.0" encoding="UTF-8" standalone="no"?>
<!DOCTYPE svg PUBLIC "-//W3C//DTD SVG 1.1//EN"
 "http://www.w3.org/Graphics/SVG/1.1/DTD/svg11.dtd">
<!-- Generated by graphviz version 5.0.0 (20220707.1540)
 -->
<!-- Title: dependencies Pages: 1 -->
<svg width="786pt" height="247pt"
 viewBox="0.00 0.00 786.00 246.80" xmlns="http://www.w3.org/2000/svg" xmlns:xlink="http://www.w3.org/1999/xlink">
<g id="graph0" class="graph" transform="scale(1 1) rotate(0) translate(4 242.8)">
<title>dependencies</title>
<polygon fill="white" stroke="transparent" points="-4,4 -4,-242.8 782,-242.8 782,4 -4,4"/>
<text text-anchor="middle" x="389" y="-8.2" font-family="sans-serif" font-size="14.00">dependencies</text>
<g id="clust1" class="cluster">
<title>cluster_SharedModule</title>
<polygon fill="none" stroke="black" stroke-dasharray="1,5" points="8,-32.8 8,-230.8 770,-230.8 770,-32.8 8,-32.8"/>
</g>
<g id="clust2" class="cluster">
<title>cluster_SharedModule_declarations</title>
<polygon fill="none" stroke="black" points="162,-40.8 162,-92.8 644,-92.8 644,-40.8 162,-40.8"/>
</g>
<g id="clust8" class="cluster">
<title>cluster_SharedModule_exports</title>
<polygon fill="none" stroke="black" points="16,-170.8 16,-222.8 762,-222.8 762,-170.8 16,-170.8"/>
</g>
<!-- BtnComponent -->
<g id="node1" class="node">
<title>BtnComponent</title>
<polygon fill="#ffffb3" stroke="black" points="635.56,-84.8 534.44,-84.8 534.44,-48.8 635.56,-48.8 635.56,-84.8"/>
<text text-anchor="middle" x="585" y="-62.6" font-family="Times,serif" font-size="14.00">BtnComponent</text>
</g>
<!-- SharedModule -->
<g id="node5" class="node">
<title>SharedModule</title>
<polygon fill="#8dd3c7" stroke="black" points="448.43,-149.8 445.43,-153.8 424.43,-153.8 421.43,-149.8 349.57,-149.8 349.57,-113.8 448.43,-113.8 448.43,-149.8"/>
<text text-anchor="middle" x="399" y="-127.6" font-family="Times,serif" font-size="14.00">SharedModule</text>
</g>
<!-- BtnComponent&#45;&gt;SharedModule -->
<g id="edge1" class="edge">
<title>BtnComponent&#45;&gt;SharedModule</title>
<path fill="none" stroke="black" d="M568.44,-84.83C568.44,-101.2 568.44,-122.8 568.44,-122.8 568.44,-122.8 458.46,-122.8 458.46,-122.8"/>
<polygon fill="black" stroke="black" points="458.46,-119.3 448.46,-122.8 458.46,-126.3 458.46,-119.3"/>
</g>
<!-- StateDirective -->
<g id="node2" class="node">
<title>StateDirective</title>
<polygon fill="#ffffb3" stroke="black" points="516.08,-84.8 419.92,-84.8 419.92,-48.8 516.08,-48.8 516.08,-84.8"/>
<text text-anchor="middle" x="468" y="-62.6" font-family="Times,serif" font-size="14.00">StateDirective</text>
</g>
<!-- StateDirective&#45;&gt;SharedModule -->
<g id="edge2" class="edge">
<title>StateDirective&#45;&gt;SharedModule</title>
<path fill="none" stroke="black" d="M434.09,-84.91C434.09,-84.91 434.09,-103.79 434.09,-103.79"/>
<polygon fill="black" stroke="black" points="430.59,-103.79 434.09,-113.79 437.59,-103.79 430.59,-103.79"/>
</g>
<!-- TableLightComponent -->
<g id="node3" class="node">
<title>TableLightComponent</title>
<polygon fill="#ffffb3" stroke="black" points="401.53,-84.8 258.47,-84.8 258.47,-48.8 401.53,-48.8 401.53,-84.8"/>
<text text-anchor="middle" x="330" y="-62.6" font-family="Times,serif" font-size="14.00">TableLightComponent</text>
</g>
<!-- TableLightComponent&#45;&gt;SharedModule -->
<g id="edge3" class="edge">
<title>TableLightComponent&#45;&gt;SharedModule</title>
<path fill="none" stroke="black" d="M375.78,-84.91C375.78,-84.91 375.78,-103.79 375.78,-103.79"/>
<polygon fill="black" stroke="black" points="372.28,-103.79 375.78,-113.79 379.28,-103.79 372.28,-103.79"/>
</g>
<!-- TotalPipe -->
<g id="node4" class="node">
<title>TotalPipe</title>
<polygon fill="#ffffb3" stroke="black" points="240.44,-84.8 169.56,-84.8 169.56,-48.8 240.44,-48.8 240.44,-84.8"/>
<text text-anchor="middle" x="205" y="-62.6" font-family="Times,serif" font-size="14.00">TotalPipe</text>
</g>
<!-- TotalPipe&#45;&gt;SharedModule -->
<g id="edge4" class="edge">
<title>TotalPipe&#45;&gt;SharedModule</title>
<path fill="none" stroke="black" d="M215.05,-84.83C215.05,-101.2 215.05,-122.8 215.05,-122.8 215.05,-122.8 339.7,-122.8 339.7,-122.8"/>
<polygon fill="black" stroke="black" points="339.7,-126.3 349.7,-122.8 339.7,-119.3 339.7,-126.3"/>
</g>
<!-- BtnComponent  -->
<g id="node6" class="node">
<title>BtnComponent </title>
<polygon fill="#fb8072" stroke="black" points="753.56,-214.8 648.44,-214.8 648.44,-178.8 753.56,-178.8 753.56,-214.8"/>
<text text-anchor="middle" x="701" y="-192.6" font-family="Times,serif" font-size="14.00">BtnComponent </text>
</g>
<!-- SharedModule&#45;&gt;BtnComponent  -->
<g id="edge5" class="edge">
<title>SharedModule&#45;&gt;BtnComponent </title>
<path fill="none" stroke="black" stroke-dasharray="5,2" d="M448.53,-131.8C534.21,-131.8 701,-131.8 701,-131.8 701,-131.8 701,-168.69 701,-168.69"/>
<polygon fill="black" stroke="black" points="697.5,-168.69 701,-178.69 704.5,-168.69 697.5,-168.69"/>
</g>
<!-- IconsModule  -->
<g id="node7" class="node">
<title>IconsModule </title>
<polygon fill="#fb8072" stroke="black" points="630.88,-214.8 537.12,-214.8 537.12,-178.8 630.88,-178.8 630.88,-214.8"/>
<text text-anchor="middle" x="584" y="-192.6" font-family="Times,serif" font-size="14.00">IconsModule </text>
</g>
<!-- SharedModule&#45;&gt;IconsModule  -->
<g id="edge6" class="edge">
<title>SharedModule&#45;&gt;IconsModule </title>
<path fill="none" stroke="black" stroke-dasharray="5,2" d="M448.32,-140.8C507.7,-140.8 599.56,-140.8 599.56,-140.8 599.56,-140.8 599.56,-168.77 599.56,-168.77"/>
<polygon fill="black" stroke="black" points="596.06,-168.77 599.56,-178.77 603.06,-168.77 596.06,-168.77"/>
</g>
<!-- StateDirective  -->
<g id="node8" class="node">
<title>StateDirective </title>
<polygon fill="#fb8072" stroke="black" points="519.58,-214.8 420.42,-214.8 420.42,-178.8 519.58,-178.8 519.58,-214.8"/>
<text text-anchor="middle" x="470" y="-192.6" font-family="Times,serif" font-size="14.00">StateDirective </text>
</g>
<!-- SharedModule&#45;&gt;StateDirective  -->
<g id="edge7" class="edge">
<title>SharedModule&#45;&gt;StateDirective </title>
<path fill="none" stroke="black" stroke-dasharray="5,2" d="M434.21,-149.91C434.21,-149.91 434.21,-168.79 434.21,-168.79"/>
<polygon fill="black" stroke="black" points="430.71,-168.79 434.21,-178.79 437.71,-168.79 430.71,-168.79"/>
</g>
<!-- TableLightComponent  -->
<g id="node9" class="node">
<title>TableLightComponent </title>
<polygon fill="#fb8072" stroke="black" points="402.53,-214.8 255.47,-214.8 255.47,-178.8 402.53,-178.8 402.53,-214.8"/>
<text text-anchor="middle" x="329" y="-192.6" font-family="Times,serif" font-size="14.00">TableLightComponent </text>
</g>
<!-- SharedModule&#45;&gt;TableLightComponent  -->
<g id="edge8" class="edge">
<title>SharedModule&#45;&gt;TableLightComponent </title>
<path fill="none" stroke="black" stroke-dasharray="5,2" d="M376.15,-149.91C376.15,-149.91 376.15,-168.79 376.15,-168.79"/>
<polygon fill="black" stroke="black" points="372.65,-168.79 376.15,-178.79 379.65,-168.79 372.65,-168.79"/>
</g>
<!-- TemplatesModule  -->
<g id="node10" class="node">
<title>TemplatesModule </title>
<polygon fill="#fb8072" stroke="black" points="237.86,-214.8 116.14,-214.8 116.14,-178.8 237.86,-178.8 237.86,-214.8"/>
<text text-anchor="middle" x="177" y="-192.6" font-family="Times,serif" font-size="14.00">TemplatesModule </text>
</g>
<!-- SharedModule&#45;&gt;TemplatesModule  -->
<g id="edge9" class="edge">
<title>SharedModule&#45;&gt;TemplatesModule </title>
<path fill="none" stroke="black" stroke-dasharray="5,2" d="M349.78,-140.8C288.68,-140.8 192.42,-140.8 192.42,-140.8 192.42,-140.8 192.42,-168.77 192.42,-168.77"/>
<polygon fill="black" stroke="black" points="188.92,-168.77 192.42,-178.77 195.92,-168.77 188.92,-168.77"/>
</g>
<!-- TotalPipe  -->
<g id="node11" class="node">
<title>TotalPipe </title>
<polygon fill="#fb8072" stroke="black" points="97.93,-214.8 24.07,-214.8 24.07,-178.8 97.93,-178.8 97.93,-214.8"/>
<text text-anchor="middle" x="61" y="-192.6" font-family="Times,serif" font-size="14.00">TotalPipe </text>
</g>
<!-- SharedModule&#45;&gt;TotalPipe  -->
<g id="edge10" class="edge">
<title>SharedModule&#45;&gt;TotalPipe </title>
<path fill="none" stroke="black" stroke-dasharray="5,2" d="M349.49,-131.8C255.61,-131.8 61,-131.8 61,-131.8 61,-131.8 61,-168.69 61,-168.69"/>
<polygon fill="black" stroke="black" points="57.5,-168.69 61,-178.69 64.5,-168.69 57.5,-168.69"/>
</g>
</g>
</svg>
