<?xml version="1.0" encoding="UTF-8" standalone="no"?>
<!DOCTYPE svg PUBLIC "-//W3C//DTD SVG 1.1//EN"
 "http://www.w3.org/Graphics/SVG/1.1/DTD/svg11.dtd">
<!-- Generated by graphviz version 5.0.0 (20220707.1540)
 -->
<!-- Title: dependencies Pages: 1 -->
<svg width="1002pt" height="174pt"
 viewBox="0.00 0.00 1002.00 173.80" xmlns="http://www.w3.org/2000/svg" xmlns:xlink="http://www.w3.org/1999/xlink">
<g id="graph0" class="graph" transform="scale(1 1) rotate(0) translate(4 169.8)">
<title>dependencies</title>
<polygon fill="white" stroke="transparent" points="-4,4 -4,-169.8 998,-169.8 998,4 -4,4"/>
<text text-anchor="middle" x="497" y="-8.2" font-family="sans-serif" font-size="14.00">dependencies</text>
<g id="clust1" class="cluster">
<title>cluster_OrdersModule</title>
<polygon fill="none" stroke="black" stroke-dasharray="1,5" points="8,-32.8 8,-157.8 986,-157.8 986,-32.8 8,-32.8"/>
</g>
<g id="clust7" class="cluster">
<title>cluster_OrdersModule_imports</title>
<polygon fill="none" stroke="black" points="703,-40.8 703,-92.8 978,-92.8 978,-40.8 703,-40.8"/>
</g>
<g id="clust2" class="cluster">
<title>cluster_OrdersModule_declarations</title>
<polygon fill="none" stroke="black" points="16,-40.8 16,-92.8 695,-92.8 695,-40.8 16,-40.8"/>
</g>
<!-- FormComponent -->
<g id="node1" class="node">
<title>FormComponent</title>
<polygon fill="#ffffb3" stroke="black" points="686.67,-84.8 575.33,-84.8 575.33,-48.8 686.67,-48.8 686.67,-84.8"/>
<text text-anchor="middle" x="631" y="-62.6" font-family="Times,serif" font-size="14.00">FormComponent</text>
</g>
<!-- OrdersModule -->
<g id="node5" class="node">
<title>OrdersModule</title>
<polygon fill="#8dd3c7" stroke="black" points="601.65,-149.8 598.65,-153.8 577.65,-153.8 574.65,-149.8 504.35,-149.8 504.35,-113.8 601.65,-113.8 601.65,-149.8"/>
<text text-anchor="middle" x="553" y="-127.6" font-family="Times,serif" font-size="14.00">OrdersModule</text>
</g>
<!-- FormComponent&#45;&gt;OrdersModule -->
<g id="edge1" class="edge">
<title>FormComponent&#45;&gt;OrdersModule</title>
<path fill="none" stroke="black" d="M588.49,-84.91C588.49,-84.91 588.49,-103.79 588.49,-103.79"/>
<polygon fill="black" stroke="black" points="584.99,-103.79 588.49,-113.79 591.99,-103.79 584.99,-103.79"/>
</g>
<!-- PageAddOrderComponent -->
<g id="node2" class="node">
<title>PageAddOrderComponent</title>
<polygon fill="#ffffb3" stroke="black" points="557.8,-84.8 392.2,-84.8 392.2,-48.8 557.8,-48.8 557.8,-84.8"/>
<text text-anchor="middle" x="475" y="-62.6" font-family="Times,serif" font-size="14.00">PageAddOrderComponent</text>
</g>
<!-- PageAddOrderComponent&#45;&gt;OrdersModule -->
<g id="edge2" class="edge">
<title>PageAddOrderComponent&#45;&gt;OrdersModule</title>
<path fill="none" stroke="black" d="M530.91,-84.91C530.91,-84.91 530.91,-103.79 530.91,-103.79"/>
<polygon fill="black" stroke="black" points="527.41,-103.79 530.91,-113.79 534.41,-103.79 527.41,-103.79"/>
</g>
<!-- PageEditOrderComponent -->
<g id="node3" class="node">
<title>PageEditOrderComponent</title>
<polygon fill="#ffffb3" stroke="black" points="374.03,-84.8 209.97,-84.8 209.97,-48.8 374.03,-48.8 374.03,-84.8"/>
<text text-anchor="middle" x="292" y="-62.6" font-family="Times,serif" font-size="14.00">PageEditOrderComponent</text>
</g>
<!-- PageEditOrderComponent&#45;&gt;OrdersModule -->
<g id="edge3" class="edge">
<title>PageEditOrderComponent&#45;&gt;OrdersModule</title>
<path fill="none" stroke="black" d="M292,-84.82C292,-102.17 292,-125.8 292,-125.8 292,-125.8 494.21,-125.8 494.21,-125.8"/>
<polygon fill="black" stroke="black" points="494.21,-129.3 504.21,-125.8 494.21,-122.3 494.21,-129.3"/>
</g>
<!-- PageListOrdersComponent -->
<g id="node4" class="node">
<title>PageListOrdersComponent</title>
<polygon fill="#ffffb3" stroke="black" points="192.42,-84.8 23.58,-84.8 23.58,-48.8 192.42,-48.8 192.42,-84.8"/>
<text text-anchor="middle" x="108" y="-62.6" font-family="Times,serif" font-size="14.00">PageListOrdersComponent</text>
</g>
<!-- PageListOrdersComponent&#45;&gt;OrdersModule -->
<g id="edge4" class="edge">
<title>PageListOrdersComponent&#45;&gt;OrdersModule</title>
<path fill="none" stroke="black" d="M108,-85.08C108,-106.12 108,-137.8 108,-137.8 108,-137.8 494.1,-137.8 494.1,-137.8"/>
<polygon fill="black" stroke="black" points="494.1,-141.3 504.1,-137.8 494.1,-134.3 494.1,-141.3"/>
</g>
<!-- OrdersRoutingModule -->
<g id="node6" class="node">
<title>OrdersRoutingModule</title>
<polygon fill="#8dd3c7" stroke="black" points="970.27,-84.8 967.27,-88.8 946.27,-88.8 943.27,-84.8 827.73,-84.8 827.73,-48.8 970.27,-48.8 970.27,-84.8"/>
<text text-anchor="middle" x="899" y="-62.6" font-family="Times,serif" font-size="14.00">OrdersRoutingModule</text>
</g>
<!-- OrdersRoutingModule&#45;&gt;OrdersModule -->
<g id="edge5" class="edge">
<title>OrdersRoutingModule&#45;&gt;OrdersModule</title>
<path fill="none" stroke="black" d="M899,-85.08C899,-106.12 899,-137.8 899,-137.8 899,-137.8 611.84,-137.8 611.84,-137.8"/>
<polygon fill="black" stroke="black" points="611.84,-134.3 601.84,-137.8 611.84,-141.3 611.84,-134.3"/>
</g>
<!-- SharedModule -->
<g id="node7" class="node">
<title>SharedModule</title>
<polygon fill="#8dd3c7" stroke="black" points="809.43,-84.8 806.43,-88.8 785.43,-88.8 782.43,-84.8 710.57,-84.8 710.57,-48.8 809.43,-48.8 809.43,-84.8"/>
<text text-anchor="middle" x="760" y="-62.6" font-family="Times,serif" font-size="14.00">SharedModule</text>
</g>
<!-- SharedModule&#45;&gt;OrdersModule -->
<g id="edge6" class="edge">
<title>SharedModule&#45;&gt;OrdersModule</title>
<path fill="none" stroke="black" d="M760,-84.82C760,-102.17 760,-125.8 760,-125.8 760,-125.8 611.79,-125.8 611.79,-125.8"/>
<polygon fill="black" stroke="black" points="611.79,-122.3 601.79,-125.8 611.79,-129.3 611.79,-122.3"/>
</g>
</g>
</svg>
