<?xml version="1.0" encoding="UTF-8" standalone="no"?>
<!DOCTYPE svg PUBLIC "-//W3C//DTD SVG 1.1//EN"
 "http://www.w3.org/Graphics/SVG/1.1/DTD/svg11.dtd">
<!-- Generated by graphviz version 5.0.0 (20220707.1540)
 -->
<!-- Title: dependencies Pages: 1 -->
<svg width="665pt" height="247pt"
 viewBox="0.00 0.00 665.00 246.80" xmlns="http://www.w3.org/2000/svg" xmlns:xlink="http://www.w3.org/1999/xlink">
<g id="graph0" class="graph" transform="scale(1 1) rotate(0) translate(4 242.8)">
<title>dependencies</title>
<polygon fill="white" stroke="transparent" points="-4,4 -4,-242.8 661,-242.8 661,4 -4,4"/>
<text text-anchor="middle" x="328.5" y="-8.2" font-family="sans-serif" font-size="14.00">dependencies</text>
<g id="clust1" class="cluster">
<title>cluster_IconsModule</title>
<polygon fill="none" stroke="black" stroke-dasharray="1,5" points="8,-32.8 8,-230.8 649,-230.8 649,-32.8 8,-32.8"/>
</g>
<g id="clust2" class="cluster">
<title>cluster_IconsModule_declarations</title>
<polygon fill="none" stroke="black" points="25,-40.8 25,-92.8 635,-92.8 635,-40.8 25,-40.8"/>
</g>
<g id="clust8" class="cluster">
<title>cluster_IconsModule_exports</title>
<polygon fill="none" stroke="black" points="16,-170.8 16,-222.8 641,-222.8 641,-170.8 16,-170.8"/>
</g>
<!-- IconCloseComponent -->
<g id="node1" class="node">
<title>IconCloseComponent</title>
<polygon fill="#ffffb3" stroke="black" points="627.1,-84.8 488.9,-84.8 488.9,-48.8 627.1,-48.8 627.1,-84.8"/>
<text text-anchor="middle" x="558" y="-62.6" font-family="Times,serif" font-size="14.00">IconCloseComponent</text>
</g>
<!-- IconsModule -->
<g id="node5" class="node">
<title>IconsModule</title>
<polygon fill="#8dd3c7" stroke="black" points="292.88,-149.8 289.88,-153.8 268.88,-153.8 265.88,-149.8 203.12,-149.8 203.12,-113.8 292.88,-113.8 292.88,-149.8"/>
<text text-anchor="middle" x="248" y="-127.6" font-family="Times,serif" font-size="14.00">IconsModule</text>
</g>
<!-- IconCloseComponent&#45;&gt;IconsModule -->
<g id="edge1" class="edge">
<title>IconCloseComponent&#45;&gt;IconsModule</title>
<path fill="none" stroke="black" d="M581.77,-85.07C581.77,-103.36 581.77,-128.8 581.77,-128.8 581.77,-128.8 303.01,-128.8 303.01,-128.8"/>
<polygon fill="black" stroke="black" points="303.01,-125.3 293.01,-128.8 303.01,-132.3 303.01,-125.3"/>
</g>
<!-- IconDeleteComponent -->
<g id="node2" class="node">
<title>IconDeleteComponent</title>
<polygon fill="#ffffb3" stroke="black" points="471.24,-84.8 328.76,-84.8 328.76,-48.8 471.24,-48.8 471.24,-84.8"/>
<text text-anchor="middle" x="400" y="-62.6" font-family="Times,serif" font-size="14.00">IconDeleteComponent</text>
</g>
<!-- IconDeleteComponent&#45;&gt;IconsModule -->
<g id="edge2" class="edge">
<title>IconDeleteComponent&#45;&gt;IconsModule</title>
<path fill="none" stroke="black" d="M423.79,-84.81C423.79,-100.85 423.79,-121.8 423.79,-121.8 423.79,-121.8 303.27,-121.8 303.27,-121.8"/>
<polygon fill="black" stroke="black" points="303.27,-118.3 293.27,-121.8 303.27,-125.3 303.27,-118.3"/>
</g>
<!-- IconEditComponent -->
<g id="node3" class="node">
<title>IconEditComponent</title>
<polygon fill="#ffffb3" stroke="black" points="310.54,-84.8 181.46,-84.8 181.46,-48.8 310.54,-48.8 310.54,-84.8"/>
<text text-anchor="middle" x="246" y="-62.6" font-family="Times,serif" font-size="14.00">IconEditComponent</text>
</g>
<!-- IconEditComponent&#45;&gt;IconsModule -->
<g id="edge3" class="edge">
<title>IconEditComponent&#45;&gt;IconsModule</title>
<path fill="none" stroke="black" d="M248,-84.91C248,-84.91 248,-103.79 248,-103.79"/>
<polygon fill="black" stroke="black" points="244.5,-103.79 248,-113.79 251.5,-103.79 244.5,-103.79"/>
</g>
<!-- IconNavComponent -->
<g id="node4" class="node">
<title>IconNavComponent</title>
<polygon fill="#ffffb3" stroke="black" points="162.53,-84.8 33.47,-84.8 33.47,-48.8 162.53,-48.8 162.53,-84.8"/>
<text text-anchor="middle" x="98" y="-62.6" font-family="Times,serif" font-size="14.00">IconNavComponent</text>
</g>
<!-- IconNavComponent&#45;&gt;IconsModule -->
<g id="edge4" class="edge">
<title>IconNavComponent&#45;&gt;IconsModule</title>
<path fill="none" stroke="black" d="M116.09,-84.82C116.09,-102.17 116.09,-125.8 116.09,-125.8 116.09,-125.8 192.97,-125.8 192.97,-125.8"/>
<polygon fill="black" stroke="black" points="192.97,-129.3 202.97,-125.8 192.97,-122.3 192.97,-129.3"/>
</g>
<!-- IconCloseComponent  -->
<g id="node6" class="node">
<title>IconCloseComponent </title>
<polygon fill="#fb8072" stroke="black" points="632.6,-214.8 491.4,-214.8 491.4,-178.8 632.6,-178.8 632.6,-214.8"/>
<text text-anchor="middle" x="562" y="-192.6" font-family="Times,serif" font-size="14.00">IconCloseComponent </text>
</g>
<!-- IconsModule&#45;&gt;IconCloseComponent  -->
<g id="edge5" class="edge">
<title>IconsModule&#45;&gt;IconCloseComponent </title>
<path fill="none" stroke="black" stroke-dasharray="5,2" d="M293.08,-135.8C374.21,-135.8 536.48,-135.8 536.48,-135.8 536.48,-135.8 536.48,-168.5 536.48,-168.5"/>
<polygon fill="black" stroke="black" points="532.98,-168.5 536.48,-178.5 539.98,-168.5 532.98,-168.5"/>
</g>
<!-- IconDeleteComponent  -->
<g id="node7" class="node">
<title>IconDeleteComponent </title>
<polygon fill="#fb8072" stroke="black" points="473.24,-214.8 326.76,-214.8 326.76,-178.8 473.24,-178.8 473.24,-214.8"/>
<text text-anchor="middle" x="400" y="-192.6" font-family="Times,serif" font-size="14.00">IconDeleteComponent </text>
</g>
<!-- IconsModule&#45;&gt;IconDeleteComponent  -->
<g id="edge6" class="edge">
<title>IconsModule&#45;&gt;IconDeleteComponent </title>
<path fill="none" stroke="black" stroke-dasharray="5,2" d="M293.2,-142.8C330.11,-142.8 376.21,-142.8 376.21,-142.8 376.21,-142.8 376.21,-168.52 376.21,-168.52"/>
<polygon fill="black" stroke="black" points="372.71,-168.52 376.21,-178.52 379.71,-168.52 372.71,-168.52"/>
</g>
<!-- IconEditComponent  -->
<g id="node8" class="node">
<title>IconEditComponent </title>
<polygon fill="#fb8072" stroke="black" points="308.54,-214.8 175.46,-214.8 175.46,-178.8 308.54,-178.8 308.54,-214.8"/>
<text text-anchor="middle" x="242" y="-192.6" font-family="Times,serif" font-size="14.00">IconEditComponent </text>
</g>
<!-- IconsModule&#45;&gt;IconEditComponent  -->
<g id="edge7" class="edge">
<title>IconsModule&#45;&gt;IconEditComponent </title>
<path fill="none" stroke="black" stroke-dasharray="5,2" d="M248,-149.91C248,-149.91 248,-168.79 248,-168.79"/>
<polygon fill="black" stroke="black" points="244.5,-168.79 248,-178.79 251.5,-168.79 244.5,-168.79"/>
</g>
<!-- IconNavComponent  -->
<g id="node9" class="node">
<title>IconNavComponent </title>
<polygon fill="#fb8072" stroke="black" points="157.53,-214.8 24.47,-214.8 24.47,-178.8 157.53,-178.8 157.53,-214.8"/>
<text text-anchor="middle" x="91" y="-192.6" font-family="Times,serif" font-size="14.00">IconNavComponent </text>
</g>
<!-- IconsModule&#45;&gt;IconNavComponent  -->
<g id="edge8" class="edge">
<title>IconsModule&#45;&gt;IconNavComponent </title>
<path fill="none" stroke="black" stroke-dasharray="5,2" d="M202.91,-137.8C151.55,-137.8 74.66,-137.8 74.66,-137.8 74.66,-137.8 74.66,-168.78 74.66,-168.78"/>
<polygon fill="black" stroke="black" points="71.16,-168.78 74.66,-178.78 78.16,-168.78 71.16,-168.78"/>
</g>
</g>
</svg>
