<?xml version="1.0" encoding="UTF-8" standalone="no"?>
<!DOCTYPE svg PUBLIC "-//W3C//DTD SVG 1.1//EN"
 "http://www.w3.org/Graphics/SVG/1.1/DTD/svg11.dtd">
<!-- Generated by graphviz version 5.0.0 (20220707.1540)
 -->
<!-- Title: dependencies Pages: 1 -->
<svg width="6938pt" height="253pt"
 viewBox="0.00 0.00 6938.00 252.80" xmlns="http://www.w3.org/2000/svg" xmlns:xlink="http://www.w3.org/1999/xlink">
<g id="graph0" class="graph" transform="scale(1 1) rotate(0) translate(4 248.8)">
<title>dependencies</title>
<polygon fill="white" stroke="transparent" points="-4,4 -4,-248.8 6934,-248.8 6934,4 -4,4"/>
<text text-anchor="middle" x="3465" y="-8.2" font-family="sans-serif" font-size="14.00">dependencies</text>
<g id="clust1" class="cluster">
<title>cluster_AppModule</title>
<polygon fill="none" stroke="black" stroke-dasharray="1,5" points="8,-32.8 8,-236.8 403,-236.8 403,-32.8 8,-32.8"/>
</g>
<g id="clust2" class="cluster">
<title>cluster_AppModule_declarations</title>
<polygon fill="none" stroke="black" points="16,-40.8 16,-92.8 138,-92.8 138,-40.8 16,-40.8"/>
</g>
<g id="clust4" class="cluster">
<title>cluster_AppModule_imports</title>
<polygon fill="none" stroke="black" points="146,-40.8 146,-92.8 395,-92.8 395,-40.8 146,-40.8"/>
</g>
<g id="clust6" class="cluster">
<title>cluster_AppModule_bootstrap</title>
<polygon fill="none" stroke="black" points="156,-176.8 156,-228.8 280,-228.8 280,-176.8 156,-176.8"/>
</g>
<g id="clust14" class="cluster">
<title>cluster_ClientsModule</title>
<polygon fill="none" stroke="black" stroke-dasharray="1,5" points="3587,-32.8 3587,-160.8 4325,-160.8 4325,-32.8 3587,-32.8"/>
</g>
<g id="clust15" class="cluster">
<title>cluster_ClientsModule_declarations</title>
<polygon fill="none" stroke="black" points="3763,-40.8 3763,-92.8 4317,-92.8 4317,-40.8 3763,-40.8"/>
</g>
<g id="clust19" class="cluster">
<title>cluster_ClientsModule_imports</title>
<polygon fill="none" stroke="black" points="3595,-40.8 3595,-92.8 3755,-92.8 3755,-40.8 3595,-40.8"/>
</g>
<g id="clust29" class="cluster">
<title>cluster_CoreModule</title>
<polygon fill="none" stroke="black" stroke-dasharray="1,5" points="411,-100.8 411,-168.8 1584,-168.8 1584,-100.8 411,-100.8"/>
</g>
<g id="clust30" class="cluster">
<title>cluster_CoreModule_declarations</title>
<polygon fill="none" stroke="black" points="419,-108.8 419,-160.8 815,-160.8 815,-108.8 419,-108.8"/>
</g>
<g id="clust35" class="cluster">
<title>cluster_CoreModule_exports</title>
<polygon fill="none" stroke="black" points="823,-108.8 823,-160.8 1576,-160.8 1576,-108.8 823,-108.8"/>
</g>
<g id="clust38" class="cluster">
<title>cluster_IconsModule</title>
<polygon fill="none" stroke="black" stroke-dasharray="1,5" points="4333,-32.8 4333,-236.8 4974,-236.8 4974,-32.8 4333,-32.8"/>
</g>
<g id="clust39" class="cluster">
<title>cluster_IconsModule_declarations</title>
<polygon fill="none" stroke="black" points="4348,-40.8 4348,-92.8 4958,-92.8 4958,-40.8 4348,-40.8"/>
</g>
<g id="clust45" class="cluster">
<title>cluster_IconsModule_exports</title>
<polygon fill="none" stroke="black" points="4341,-176.8 4341,-228.8 4966,-228.8 4966,-176.8 4341,-176.8"/>
</g>
<g id="clust48" class="cluster">
<title>cluster_LoginModule</title>
<polygon fill="none" stroke="black" stroke-dasharray="1,5" points="4982,-32.8 4982,-160.8 5920,-160.8 5920,-32.8 4982,-32.8"/>
</g>
<g id="clust49" class="cluster">
<title>cluster_LoginModule_declarations</title>
<polygon fill="none" stroke="black" points="5152,-40.8 5152,-92.8 5912,-92.8 5912,-40.8 5152,-40.8"/>
</g>
<g id="clust54" class="cluster">
<title>cluster_LoginModule_imports</title>
<polygon fill="none" stroke="black" points="4990,-40.8 4990,-92.8 5144,-92.8 5144,-40.8 4990,-40.8"/>
</g>
<g id="clust64" class="cluster">
<title>cluster_OrdersModule</title>
<polygon fill="none" stroke="black" stroke-dasharray="1,5" points="1592,-32.8 1592,-160.8 2570,-160.8 2570,-32.8 1592,-32.8"/>
</g>
<g id="clust65" class="cluster">
<title>cluster_OrdersModule_declarations</title>
<polygon fill="none" stroke="black" points="1600,-40.8 1600,-92.8 2279,-92.8 2279,-40.8 1600,-40.8"/>
</g>
<g id="clust70" class="cluster">
<title>cluster_OrdersModule_imports</title>
<polygon fill="none" stroke="black" points="2287,-40.8 2287,-92.8 2562,-92.8 2562,-40.8 2287,-40.8"/>
</g>
<g id="clust80" class="cluster">
<title>cluster_PageNotFoundModule</title>
<polygon fill="none" stroke="black" stroke-dasharray="1,5" points="5928,-32.8 5928,-160.8 6338,-160.8 6338,-32.8 5928,-32.8"/>
</g>
<g id="clust81" class="cluster">
<title>cluster_PageNotFoundModule_declarations</title>
<polygon fill="none" stroke="black" points="6148,-40.8 6148,-92.8 6330,-92.8 6330,-40.8 6148,-40.8"/>
</g>
<g id="clust83" class="cluster">
<title>cluster_PageNotFoundModule_imports</title>
<polygon fill="none" stroke="black" points="5936,-40.8 5936,-92.8 6140,-92.8 6140,-40.8 5936,-40.8"/>
</g>
<g id="clust93" class="cluster">
<title>cluster_SharedModule</title>
<polygon fill="none" stroke="black" stroke-dasharray="1,5" points="2578,-100.8 2578,-168.8 3579,-168.8 3579,-100.8 2578,-100.8"/>
</g>
<g id="clust94" class="cluster">
<title>cluster_SharedModule_declarations</title>
<polygon fill="none" stroke="black" points="3089,-108.8 3089,-160.8 3571,-160.8 3571,-108.8 3089,-108.8"/>
</g>
<g id="clust100" class="cluster">
<title>cluster_SharedModule_exports</title>
<polygon fill="none" stroke="black" points="2586,-108.8 2586,-160.8 3081,-160.8 3081,-108.8 2586,-108.8"/>
</g>
<g id="clust103" class="cluster">
<title>cluster_TemplatesModule</title>
<polygon fill="none" stroke="black" stroke-dasharray="1,5" points="6346,-32.8 6346,-236.8 6784,-236.8 6784,-32.8 6346,-32.8"/>
</g>
<g id="clust104" class="cluster">
<title>cluster_TemplatesModule_declarations</title>
<polygon fill="none" stroke="black" points="6357,-40.8 6357,-92.8 6773,-92.8 6773,-40.8 6357,-40.8"/>
</g>
<g id="clust108" class="cluster">
<title>cluster_TemplatesModule_exports</title>
<polygon fill="none" stroke="black" points="6354,-176.8 6354,-228.8 6776,-228.8 6776,-176.8 6354,-176.8"/>
</g>
<g id="clust111" class="cluster">
<title>cluster_UiModule</title>
<polygon fill="none" stroke="black" stroke-dasharray="1,5" points="6792,-32.8 6792,-236.8 6922,-236.8 6922,-32.8 6792,-32.8"/>
</g>
<g id="clust112" class="cluster">
<title>cluster_UiModule_declarations</title>
<polygon fill="none" stroke="black" points="6801,-40.8 6801,-92.8 6913,-92.8 6913,-40.8 6801,-40.8"/>
</g>
<g id="clust115" class="cluster">
<title>cluster_UiModule_exports</title>
<polygon fill="none" stroke="black" points="6800,-176.8 6800,-228.8 6914,-228.8 6914,-176.8 6800,-176.8"/>
</g>
<!-- AppComponent -->
<g id="node1" class="node">
<title>AppComponent</title>
<polygon fill="#ffffb3" stroke="black" points="129.94,-84.8 24.06,-84.8 24.06,-48.8 129.94,-48.8 129.94,-84.8"/>
<text text-anchor="middle" x="77" y="-62.6" font-family="Times,serif" font-size="14.00">AppComponent</text>
</g>
<!-- AppModule -->
<g id="node2" class="node">
<title>AppModule</title>
<polygon fill="#8dd3c7" stroke="black" points="259.66,-152.8 256.66,-156.8 235.66,-156.8 232.66,-152.8 176.34,-152.8 176.34,-116.8 259.66,-116.8 259.66,-152.8"/>
<text text-anchor="middle" x="218" y="-130.6" font-family="Times,serif" font-size="14.00">AppModule</text>
</g>
<!-- AppComponent&#45;&gt;AppModule -->
<g id="edge1" class="edge">
<title>AppComponent&#45;&gt;AppModule</title>
<path fill="none" stroke="black" d="M77,-85.02C77,-105.17 77,-134.8 77,-134.8 77,-134.8 166.08,-134.8 166.08,-134.8"/>
<polygon fill="black" stroke="black" points="166.08,-138.3 176.08,-134.8 166.08,-131.3 166.08,-138.3"/>
</g>
<!-- AppComponent  -->
<g id="node5" class="node">
<title>AppComponent </title>
<polygon fill="#80b1d3" stroke="black" points="272.44,-220.8 163.56,-220.8 163.56,-184.8 272.44,-184.8 272.44,-220.8"/>
<text text-anchor="middle" x="218" y="-198.6" font-family="Times,serif" font-size="14.00">AppComponent </text>
</g>
<!-- AppModule&#45;&gt;AppComponent  -->
<g id="edge4" class="edge">
<title>AppModule&#45;&gt;AppComponent </title>
<path fill="none" stroke="black" stroke-dasharray="1,5" d="M218,-153.02C218,-153.02 218,-174.53 218,-174.53"/>
<polygon fill="black" stroke="black" points="214.5,-174.53 218,-184.53 221.5,-174.53 214.5,-174.53"/>
</g>
<!-- AppRoutingModule -->
<g id="node3" class="node">
<title>AppRoutingModule</title>
<polygon fill="#8dd3c7" stroke="black" points="282.28,-84.8 279.28,-88.8 258.28,-88.8 255.28,-84.8 153.72,-84.8 153.72,-48.8 282.28,-48.8 282.28,-84.8"/>
<text text-anchor="middle" x="218" y="-62.6" font-family="Times,serif" font-size="14.00">AppRoutingModule</text>
</g>
<!-- AppRoutingModule&#45;&gt;AppModule -->
<g id="edge2" class="edge">
<title>AppRoutingModule&#45;&gt;AppModule</title>
<path fill="none" stroke="black" d="M218,-85.02C218,-85.02 218,-106.53 218,-106.53"/>
<polygon fill="black" stroke="black" points="214.5,-106.53 218,-116.53 221.5,-106.53 214.5,-106.53"/>
</g>
<!-- CoreModule -->
<g id="node4" class="node">
<title>CoreModule</title>
<polygon fill="#8dd3c7" stroke="black" points="387.27,-84.8 384.27,-88.8 363.27,-88.8 360.27,-84.8 300.73,-84.8 300.73,-48.8 387.27,-48.8 387.27,-84.8"/>
<text text-anchor="middle" x="344" y="-62.6" font-family="Times,serif" font-size="14.00">CoreModule</text>
</g>
<!-- CoreModule&#45;&gt;AppModule -->
<g id="edge3" class="edge">
<title>CoreModule&#45;&gt;AppModule</title>
<path fill="none" stroke="black" d="M329.54,-85.09C329.54,-107.01 329.54,-140.8 329.54,-140.8 329.54,-140.8 269.85,-140.8 269.85,-140.8"/>
<polygon fill="black" stroke="black" points="269.85,-137.3 259.85,-140.8 269.85,-144.3 269.85,-137.3"/>
</g>
<!-- FooterComponent  -->
<g id="node14" class="node">
<title>FooterComponent </title>
<polygon fill="#fb8072" stroke="black" points="952.88,-152.8 831.12,-152.8 831.12,-116.8 952.88,-116.8 952.88,-152.8"/>
<text text-anchor="middle" x="892" y="-130.6" font-family="Times,serif" font-size="14.00">FooterComponent </text>
</g>
<!-- CoreModule&#45;&gt;FooterComponent  -->
<g id="edge12" class="edge">
<title>CoreModule&#45;&gt;FooterComponent </title>
<path fill="none" stroke="black" stroke-dasharray="5,2" d="M387.46,-72.8C517.07,-72.8 892,-72.8 892,-72.8 892,-72.8 892,-106.53 892,-106.53"/>
<polygon fill="black" stroke="black" points="888.5,-106.53 892,-116.53 895.5,-106.53 888.5,-106.53"/>
</g>
<!-- HeaderComponent  -->
<g id="node15" class="node">
<title>HeaderComponent </title>
<polygon fill="#fb8072" stroke="black" points="1317.75,-152.8 1192.25,-152.8 1192.25,-116.8 1317.75,-116.8 1317.75,-152.8"/>
<text text-anchor="middle" x="1255" y="-130.6" font-family="Times,serif" font-size="14.00">HeaderComponent </text>
</g>
<!-- CoreModule&#45;&gt;HeaderComponent  -->
<g id="edge13" class="edge">
<title>CoreModule&#45;&gt;HeaderComponent </title>
<path fill="none" stroke="black" stroke-dasharray="5,2" d="M387.33,-60.8C568.37,-60.8 1255,-60.8 1255,-60.8 1255,-60.8 1255,-106.51 1255,-106.51"/>
<polygon fill="black" stroke="black" points="1251.5,-106.51 1255,-116.51 1258.5,-106.51 1251.5,-106.51"/>
</g>
<!-- IconsModule  -->
<g id="node16" class="node">
<title>IconsModule </title>
<polygon fill="#fb8072" stroke="black" points="1428.88,-152.8 1335.12,-152.8 1335.12,-116.8 1428.88,-116.8 1428.88,-152.8"/>
<text text-anchor="middle" x="1382" y="-130.6" font-family="Times,serif" font-size="14.00">IconsModule </text>
</g>
<!-- CoreModule&#45;&gt;IconsModule  -->
<g id="edge14" class="edge">
<title>CoreModule&#45;&gt;IconsModule </title>
<path fill="none" stroke="black" stroke-dasharray="5,2" d="M387.28,-56.8C581.89,-56.8 1366.44,-56.8 1366.44,-56.8 1366.44,-56.8 1366.44,-106.71 1366.44,-106.71"/>
<polygon fill="black" stroke="black" points="1362.94,-106.71 1366.44,-116.71 1369.94,-106.71 1362.94,-106.71"/>
</g>
<!-- NavComponent  -->
<g id="node17" class="node">
<title>NavComponent </title>
<polygon fill="#fb8072" stroke="black" points="1079.16,-152.8 970.84,-152.8 970.84,-116.8 1079.16,-116.8 1079.16,-152.8"/>
<text text-anchor="middle" x="1025" y="-130.6" font-family="Times,serif" font-size="14.00">NavComponent </text>
</g>
<!-- CoreModule&#45;&gt;NavComponent  -->
<g id="edge15" class="edge">
<title>CoreModule&#45;&gt;NavComponent </title>
<path fill="none" stroke="black" stroke-dasharray="5,2" d="M387.38,-68.8C537.38,-68.8 1025,-68.8 1025,-68.8 1025,-68.8 1025,-106.77 1025,-106.77"/>
<polygon fill="black" stroke="black" points="1021.5,-106.77 1025,-116.77 1028.5,-106.77 1021.5,-106.77"/>
</g>
<!-- TemplatesModule  -->
<g id="node18" class="node">
<title>TemplatesModule </title>
<polygon fill="#fb8072" stroke="black" points="1567.86,-152.8 1446.14,-152.8 1446.14,-116.8 1567.86,-116.8 1567.86,-152.8"/>
<text text-anchor="middle" x="1507" y="-130.6" font-family="Times,serif" font-size="14.00">TemplatesModule </text>
</g>
<!-- CoreModule&#45;&gt;TemplatesModule  -->
<g id="edge16" class="edge">
<title>CoreModule&#45;&gt;TemplatesModule </title>
<path fill="none" stroke="black" stroke-dasharray="5,2" d="M387.4,-52.8C596.14,-52.8 1486.77,-52.8 1486.77,-52.8 1486.77,-52.8 1486.77,-106.6 1486.77,-106.6"/>
<polygon fill="black" stroke="black" points="1483.27,-106.6 1486.77,-116.6 1490.27,-106.6 1483.27,-106.6"/>
</g>
<!-- UiModule  -->
<g id="node19" class="node">
<title>UiModule </title>
<polygon fill="#fb8072" stroke="black" points="1174.55,-152.8 1097.45,-152.8 1097.45,-116.8 1174.55,-116.8 1174.55,-152.8"/>
<text text-anchor="middle" x="1136" y="-130.6" font-family="Times,serif" font-size="14.00">UiModule </text>
</g>
<!-- CoreModule&#45;&gt;UiModule  -->
<g id="edge17" class="edge">
<title>CoreModule&#45;&gt;UiModule </title>
<path fill="none" stroke="black" stroke-dasharray="5,2" d="M387.43,-64.8C553.08,-64.8 1136,-64.8 1136,-64.8 1136,-64.8 1136,-106.77 1136,-106.77"/>
<polygon fill="black" stroke="black" points="1132.5,-106.77 1136,-116.77 1139.5,-106.77 1132.5,-106.77"/>
</g>
<!-- PageAddClientComponent -->
<g id="node6" class="node">
<title>PageAddClientComponent</title>
<polygon fill="#ffffb3" stroke="black" points="4309.38,-84.8 4142.62,-84.8 4142.62,-48.8 4309.38,-48.8 4309.38,-84.8"/>
<text text-anchor="middle" x="4226" y="-62.6" font-family="Times,serif" font-size="14.00">PageAddClientComponent</text>
</g>
<!-- ClientsModule -->
<g id="node9" class="node">
<title>ClientsModule</title>
<polygon fill="#8dd3c7" stroke="black" points="3998.72,-152.8 3995.72,-156.8 3974.72,-156.8 3971.72,-152.8 3899.28,-152.8 3899.28,-116.8 3998.72,-116.8 3998.72,-152.8"/>
<text text-anchor="middle" x="3949" y="-130.6" font-family="Times,serif" font-size="14.00">ClientsModule</text>
</g>
<!-- PageAddClientComponent&#45;&gt;ClientsModule -->
<g id="edge5" class="edge">
<title>PageAddClientComponent&#45;&gt;ClientsModule</title>
<path fill="none" stroke="black" d="M4226,-84.82C4226,-102.17 4226,-125.8 4226,-125.8 4226,-125.8 4008.84,-125.8 4008.84,-125.8"/>
<polygon fill="black" stroke="black" points="4008.84,-122.3 3998.84,-125.8 4008.84,-129.3 4008.84,-122.3"/>
</g>
<!-- PageEditClientComponent -->
<g id="node7" class="node">
<title>PageEditClientComponent</title>
<polygon fill="#ffffb3" stroke="black" points="4125.1,-84.8 3958.9,-84.8 3958.9,-48.8 4125.1,-48.8 4125.1,-84.8"/>
<text text-anchor="middle" x="4042" y="-62.6" font-family="Times,serif" font-size="14.00">PageEditClientComponent</text>
</g>
<!-- PageEditClientComponent&#45;&gt;ClientsModule -->
<g id="edge6" class="edge">
<title>PageEditClientComponent&#45;&gt;ClientsModule</title>
<path fill="none" stroke="black" d="M3978.78,-85.02C3978.78,-85.02 3978.78,-106.53 3978.78,-106.53"/>
<polygon fill="black" stroke="black" points="3975.28,-106.53 3978.78,-116.53 3982.28,-106.53 3975.28,-106.53"/>
</g>
<!-- PageListClientsComponent -->
<g id="node8" class="node">
<title>PageListClientsComponent</title>
<polygon fill="#ffffb3" stroke="black" points="3940.99,-84.8 3771.01,-84.8 3771.01,-48.8 3940.99,-48.8 3940.99,-84.8"/>
<text text-anchor="middle" x="3856" y="-62.6" font-family="Times,serif" font-size="14.00">PageListClientsComponent</text>
</g>
<!-- PageListClientsComponent&#45;&gt;ClientsModule -->
<g id="edge7" class="edge">
<title>PageListClientsComponent&#45;&gt;ClientsModule</title>
<path fill="none" stroke="black" d="M3920.19,-85.02C3920.19,-85.02 3920.19,-106.53 3920.19,-106.53"/>
<polygon fill="black" stroke="black" points="3916.69,-106.53 3920.19,-116.53 3923.69,-106.53 3916.69,-106.53"/>
</g>
<!-- ClientsRoutingModule -->
<g id="node10" class="node">
<title>ClientsRoutingModule</title>
<polygon fill="#8dd3c7" stroke="black" points="3747.34,-84.8 3744.34,-88.8 3723.34,-88.8 3720.34,-84.8 3602.66,-84.8 3602.66,-48.8 3747.34,-48.8 3747.34,-84.8"/>
<text text-anchor="middle" x="3675" y="-62.6" font-family="Times,serif" font-size="14.00">ClientsRoutingModule</text>
</g>
<!-- ClientsRoutingModule&#45;&gt;ClientsModule -->
<g id="edge8" class="edge">
<title>ClientsRoutingModule&#45;&gt;ClientsModule</title>
<path fill="none" stroke="black" d="M3675,-85.02C3675,-105.17 3675,-134.8 3675,-134.8 3675,-134.8 3889.38,-134.8 3889.38,-134.8"/>
<polygon fill="black" stroke="black" points="3889.38,-138.3 3899.38,-134.8 3889.38,-131.3 3889.38,-138.3"/>
</g>
<!-- FooterComponent -->
<g id="node11" class="node">
<title>FooterComponent</title>
<polygon fill="#ffffb3" stroke="black" points="806.88,-152.8 689.12,-152.8 689.12,-116.8 806.88,-116.8 806.88,-152.8"/>
<text text-anchor="middle" x="748" y="-130.6" font-family="Times,serif" font-size="14.00">FooterComponent</text>
</g>
<!-- FooterComponent&#45;&gt;CoreModule -->
<g id="edge9" class="edge">
<title>FooterComponent&#45;&gt;CoreModule</title>
<path fill="none" stroke="black" d="M748,-116.77C748,-99.74 748,-76.8 748,-76.8 748,-76.8 397.62,-76.8 397.62,-76.8"/>
<polygon fill="black" stroke="black" points="397.62,-73.3 387.62,-76.8 397.62,-80.3 397.62,-73.3"/>
</g>
<!-- HeaderComponent -->
<g id="node12" class="node">
<title>HeaderComponent</title>
<polygon fill="#ffffb3" stroke="black" points="670.75,-152.8 549.25,-152.8 549.25,-116.8 670.75,-116.8 670.75,-152.8"/>
<text text-anchor="middle" x="610" y="-130.6" font-family="Times,serif" font-size="14.00">HeaderComponent</text>
</g>
<!-- HeaderComponent&#45;&gt;CoreModule -->
<g id="edge10" class="edge">
<title>HeaderComponent&#45;&gt;CoreModule</title>
<path fill="none" stroke="black" d="M610,-116.52C610,-100.85 610,-80.8 610,-80.8 610,-80.8 397.33,-80.8 397.33,-80.8"/>
<polygon fill="black" stroke="black" points="397.33,-77.3 387.33,-80.8 397.33,-84.3 397.33,-77.3"/>
</g>
<!-- NavComponent -->
<g id="node13" class="node">
<title>NavComponent</title>
<polygon fill="#ffffb3" stroke="black" points="531.16,-152.8 426.84,-152.8 426.84,-116.8 531.16,-116.8 531.16,-152.8"/>
<text text-anchor="middle" x="479" y="-130.6" font-family="Times,serif" font-size="14.00">NavComponent</text>
</g>
<!-- NavComponent&#45;&gt;CoreModule -->
<g id="edge11" class="edge">
<title>NavComponent&#45;&gt;CoreModule</title>
<path fill="none" stroke="black" d="M426.83,-128.8C394.25,-128.8 358.46,-128.8 358.46,-128.8 358.46,-128.8 358.46,-95.07 358.46,-95.07"/>
<polygon fill="black" stroke="black" points="361.96,-95.07 358.46,-85.07 354.96,-95.07 361.96,-95.07"/>
</g>
<!-- IconCloseComponent -->
<g id="node20" class="node">
<title>IconCloseComponent</title>
<polygon fill="#ffffb3" stroke="black" points="4654.1,-84.8 4515.9,-84.8 4515.9,-48.8 4654.1,-48.8 4654.1,-84.8"/>
<text text-anchor="middle" x="4585" y="-62.6" font-family="Times,serif" font-size="14.00">IconCloseComponent</text>
</g>
<!-- IconsModule -->
<g id="node24" class="node">
<title>IconsModule</title>
<polygon fill="#8dd3c7" stroke="black" points="4699.88,-152.8 4696.88,-156.8 4675.88,-156.8 4672.88,-152.8 4610.12,-152.8 4610.12,-116.8 4699.88,-116.8 4699.88,-152.8"/>
<text text-anchor="middle" x="4655" y="-130.6" font-family="Times,serif" font-size="14.00">IconsModule</text>
</g>
<!-- IconCloseComponent&#45;&gt;IconsModule -->
<g id="edge18" class="edge">
<title>IconCloseComponent&#45;&gt;IconsModule</title>
<path fill="none" stroke="black" d="M4632.06,-85.02C4632.06,-85.02 4632.06,-106.53 4632.06,-106.53"/>
<polygon fill="black" stroke="black" points="4628.56,-106.53 4632.06,-116.53 4635.56,-106.53 4628.56,-106.53"/>
</g>
<!-- IconDeleteComponent -->
<g id="node21" class="node">
<title>IconDeleteComponent</title>
<polygon fill="#ffffb3" stroke="black" points="4498.24,-84.8 4355.76,-84.8 4355.76,-48.8 4498.24,-48.8 4498.24,-84.8"/>
<text text-anchor="middle" x="4427" y="-62.6" font-family="Times,serif" font-size="14.00">IconDeleteComponent</text>
</g>
<!-- IconDeleteComponent&#45;&gt;IconsModule -->
<g id="edge19" class="edge">
<title>IconDeleteComponent&#45;&gt;IconsModule</title>
<path fill="none" stroke="black" d="M4490.44,-85.02C4490.44,-105.17 4490.44,-134.8 4490.44,-134.8 4490.44,-134.8 4600.03,-134.8 4600.03,-134.8"/>
<polygon fill="black" stroke="black" points="4600.03,-138.3 4610.03,-134.8 4600.03,-131.3 4600.03,-138.3"/>
</g>
<!-- IconEditComponent -->
<g id="node22" class="node">
<title>IconEditComponent</title>
<polygon fill="#ffffb3" stroke="black" points="4949.54,-84.8 4820.46,-84.8 4820.46,-48.8 4949.54,-48.8 4949.54,-84.8"/>
<text text-anchor="middle" x="4885" y="-62.6" font-family="Times,serif" font-size="14.00">IconEditComponent</text>
</g>
<!-- IconEditComponent&#45;&gt;IconsModule -->
<g id="edge20" class="edge">
<title>IconEditComponent&#45;&gt;IconsModule</title>
<path fill="none" stroke="black" d="M4906.59,-84.83C4906.59,-101.86 4906.59,-124.8 4906.59,-124.8 4906.59,-124.8 4709.98,-124.8 4709.98,-124.8"/>
<polygon fill="black" stroke="black" points="4709.98,-121.3 4699.98,-124.8 4709.98,-128.3 4709.98,-121.3"/>
</g>
<!-- IconNavComponent -->
<g id="node23" class="node">
<title>IconNavComponent</title>
<polygon fill="#ffffb3" stroke="black" points="4801.53,-84.8 4672.47,-84.8 4672.47,-48.8 4801.53,-48.8 4801.53,-84.8"/>
<text text-anchor="middle" x="4737" y="-62.6" font-family="Times,serif" font-size="14.00">IconNavComponent</text>
</g>
<!-- IconNavComponent&#45;&gt;IconsModule -->
<g id="edge21" class="edge">
<title>IconNavComponent&#45;&gt;IconsModule</title>
<path fill="none" stroke="black" d="M4686.09,-85.02C4686.09,-85.02 4686.09,-106.53 4686.09,-106.53"/>
<polygon fill="black" stroke="black" points="4682.59,-106.53 4686.09,-116.53 4689.59,-106.53 4682.59,-106.53"/>
</g>
<!-- IconCloseComponent  -->
<g id="node25" class="node">
<title>IconCloseComponent </title>
<polygon fill="#fb8072" stroke="black" points="4957.6,-220.8 4816.4,-220.8 4816.4,-184.8 4957.6,-184.8 4957.6,-220.8"/>
<text text-anchor="middle" x="4887" y="-198.6" font-family="Times,serif" font-size="14.00">IconCloseComponent </text>
</g>
<!-- IconsModule&#45;&gt;IconCloseComponent  -->
<g id="edge22" class="edge">
<title>IconsModule&#45;&gt;IconCloseComponent </title>
<path fill="none" stroke="black" stroke-dasharray="5,2" d="M4699.97,-131.8C4761.23,-131.8 4863.41,-131.8 4863.41,-131.8 4863.41,-131.8 4863.41,-174.52 4863.41,-174.52"/>
<polygon fill="black" stroke="black" points="4859.91,-174.52 4863.41,-184.52 4866.91,-174.52 4859.91,-174.52"/>
</g>
<!-- IconDeleteComponent  -->
<g id="node26" class="node">
<title>IconDeleteComponent </title>
<polygon fill="#fb8072" stroke="black" points="4798.24,-220.8 4651.76,-220.8 4651.76,-184.8 4798.24,-184.8 4798.24,-220.8"/>
<text text-anchor="middle" x="4725" y="-198.6" font-family="Times,serif" font-size="14.00">IconDeleteComponent </text>
</g>
<!-- IconsModule&#45;&gt;IconDeleteComponent  -->
<g id="edge23" class="edge">
<title>IconsModule&#45;&gt;IconDeleteComponent </title>
<path fill="none" stroke="black" stroke-dasharray="5,2" d="M4675.91,-153.02C4675.91,-153.02 4675.91,-174.53 4675.91,-174.53"/>
<polygon fill="black" stroke="black" points="4672.41,-174.53 4675.91,-184.53 4679.41,-174.53 4672.41,-174.53"/>
</g>
<!-- IconEditComponent  -->
<g id="node27" class="node">
<title>IconEditComponent </title>
<polygon fill="#fb8072" stroke="black" points="4633.54,-220.8 4500.46,-220.8 4500.46,-184.8 4633.54,-184.8 4633.54,-220.8"/>
<text text-anchor="middle" x="4567" y="-198.6" font-family="Times,serif" font-size="14.00">IconEditComponent </text>
</g>
<!-- IconsModule&#45;&gt;IconEditComponent  -->
<g id="edge24" class="edge">
<title>IconsModule&#45;&gt;IconEditComponent </title>
<path fill="none" stroke="black" stroke-dasharray="5,2" d="M4621.79,-153.02C4621.79,-153.02 4621.79,-174.53 4621.79,-174.53"/>
<polygon fill="black" stroke="black" points="4618.29,-174.53 4621.79,-184.53 4625.29,-174.53 4618.29,-174.53"/>
</g>
<!-- IconNavComponent  -->
<g id="node28" class="node">
<title>IconNavComponent </title>
<polygon fill="#fb8072" stroke="black" points="4482.53,-220.8 4349.47,-220.8 4349.47,-184.8 4482.53,-184.8 4482.53,-220.8"/>
<text text-anchor="middle" x="4416" y="-198.6" font-family="Times,serif" font-size="14.00">IconNavComponent </text>
</g>
<!-- IconsModule&#45;&gt;IconNavComponent  -->
<g id="edge25" class="edge">
<title>IconsModule&#45;&gt;IconNavComponent </title>
<path fill="none" stroke="black" stroke-dasharray="5,2" d="M4610.07,-143.8C4541.62,-143.8 4419.07,-143.8 4419.07,-143.8 4419.07,-143.8 4419.07,-174.78 4419.07,-174.78"/>
<polygon fill="black" stroke="black" points="4415.57,-174.78 4419.07,-184.78 4422.57,-174.78 4415.57,-174.78"/>
</g>
<!-- PageForgotPasswordComponent -->
<g id="node29" class="node">
<title>PageForgotPasswordComponent</title>
<polygon fill="#ffffb3" stroke="black" points="5570.55,-84.8 5371.45,-84.8 5371.45,-48.8 5570.55,-48.8 5570.55,-84.8"/>
<text text-anchor="middle" x="5471" y="-62.6" font-family="Times,serif" font-size="14.00">PageForgotPasswordComponent</text>
</g>
<!-- LoginModule -->
<g id="node33" class="node">
<title>LoginModule</title>
<polygon fill="#8dd3c7" stroke="black" points="5517.49,-152.8 5514.49,-156.8 5493.49,-156.8 5490.49,-152.8 5424.51,-152.8 5424.51,-116.8 5517.49,-116.8 5517.49,-152.8"/>
<text text-anchor="middle" x="5471" y="-130.6" font-family="Times,serif" font-size="14.00">LoginModule</text>
</g>
<!-- PageForgotPasswordComponent&#45;&gt;LoginModule -->
<g id="edge26" class="edge">
<title>PageForgotPasswordComponent&#45;&gt;LoginModule</title>
<path fill="none" stroke="black" d="M5471,-85.02C5471,-85.02 5471,-106.53 5471,-106.53"/>
<polygon fill="black" stroke="black" points="5467.5,-106.53 5471,-116.53 5474.5,-106.53 5467.5,-106.53"/>
</g>
<!-- PageResetPasswordComponent -->
<g id="node30" class="node">
<title>PageResetPasswordComponent</title>
<polygon fill="#ffffb3" stroke="black" points="5353.82,-84.8 5160.18,-84.8 5160.18,-48.8 5353.82,-48.8 5353.82,-84.8"/>
<text text-anchor="middle" x="5257" y="-62.6" font-family="Times,serif" font-size="14.00">PageResetPasswordComponent</text>
</g>
<!-- PageResetPasswordComponent&#45;&gt;LoginModule -->
<g id="edge27" class="edge">
<title>PageResetPasswordComponent&#45;&gt;LoginModule</title>
<path fill="none" stroke="black" d="M5257,-84.97C5257,-106.3 5257,-138.8 5257,-138.8 5257,-138.8 5414.3,-138.8 5414.3,-138.8"/>
<polygon fill="black" stroke="black" points="5414.3,-142.3 5424.3,-138.8 5414.3,-135.3 5414.3,-142.3"/>
</g>
<!-- PageSignInComponent -->
<g id="node31" class="node">
<title>PageSignInComponent</title>
<polygon fill="#ffffb3" stroke="black" points="5903.88,-84.8 5758.12,-84.8 5758.12,-48.8 5903.88,-48.8 5903.88,-84.8"/>
<text text-anchor="middle" x="5831" y="-62.6" font-family="Times,serif" font-size="14.00">PageSignInComponent</text>
</g>
<!-- PageSignInComponent&#45;&gt;LoginModule -->
<g id="edge28" class="edge">
<title>PageSignInComponent&#45;&gt;LoginModule</title>
<path fill="none" stroke="black" d="M5831,-85.09C5831,-107.01 5831,-140.8 5831,-140.8 5831,-140.8 5527.69,-140.8 5527.69,-140.8"/>
<polygon fill="black" stroke="black" points="5527.69,-137.3 5517.69,-140.8 5527.69,-144.3 5527.69,-137.3"/>
</g>
<!-- PageSignUpComponent -->
<g id="node32" class="node">
<title>PageSignUpComponent</title>
<polygon fill="#ffffb3" stroke="black" points="5739.83,-84.8 5588.17,-84.8 5588.17,-48.8 5739.83,-48.8 5739.83,-84.8"/>
<text text-anchor="middle" x="5664" y="-62.6" font-family="Times,serif" font-size="14.00">PageSignUpComponent</text>
</g>
<!-- PageSignUpComponent&#45;&gt;LoginModule -->
<g id="edge29" class="edge">
<title>PageSignUpComponent&#45;&gt;LoginModule</title>
<path fill="none" stroke="black" d="M5664,-85.07C5664,-103.36 5664,-128.8 5664,-128.8 5664,-128.8 5527.72,-128.8 5527.72,-128.8"/>
<polygon fill="black" stroke="black" points="5527.72,-125.3 5517.72,-128.8 5527.72,-132.3 5527.72,-125.3"/>
</g>
<!-- LoginRoutingModule -->
<g id="node34" class="node">
<title>LoginRoutingModule</title>
<polygon fill="#8dd3c7" stroke="black" points="5136.11,-84.8 5133.11,-88.8 5112.11,-88.8 5109.11,-84.8 4997.89,-84.8 4997.89,-48.8 5136.11,-48.8 5136.11,-84.8"/>
<text text-anchor="middle" x="5067" y="-62.6" font-family="Times,serif" font-size="14.00">LoginRoutingModule</text>
</g>
<!-- LoginRoutingModule&#45;&gt;LoginModule -->
<g id="edge30" class="edge">
<title>LoginRoutingModule&#45;&gt;LoginModule</title>
<path fill="none" stroke="black" d="M5067,-85.12C5067,-108.46 5067,-145.8 5067,-145.8 5067,-145.8 5414.26,-145.8 5414.26,-145.8"/>
<polygon fill="black" stroke="black" points="5414.26,-149.3 5424.26,-145.8 5414.26,-142.3 5414.26,-149.3"/>
</g>
<!-- FormComponent -->
<g id="node35" class="node">
<title>FormComponent</title>
<polygon fill="#ffffb3" stroke="black" points="1902.67,-84.8 1791.33,-84.8 1791.33,-48.8 1902.67,-48.8 1902.67,-84.8"/>
<text text-anchor="middle" x="1847" y="-62.6" font-family="Times,serif" font-size="14.00">FormComponent</text>
</g>
<!-- OrdersModule -->
<g id="node39" class="node">
<title>OrdersModule</title>
<polygon fill="#8dd3c7" stroke="black" points="2145.65,-152.8 2142.65,-156.8 2121.65,-156.8 2118.65,-152.8 2048.35,-152.8 2048.35,-116.8 2145.65,-116.8 2145.65,-152.8"/>
<text text-anchor="middle" x="2097" y="-130.6" font-family="Times,serif" font-size="14.00">OrdersModule</text>
</g>
<!-- FormComponent&#45;&gt;OrdersModule -->
<g id="edge31" class="edge">
<title>FormComponent&#45;&gt;OrdersModule</title>
<path fill="none" stroke="black" d="M1847,-85.07C1847,-103.36 1847,-128.8 1847,-128.8 1847,-128.8 2038.2,-128.8 2038.2,-128.8"/>
<polygon fill="black" stroke="black" points="2038.2,-132.3 2048.2,-128.8 2038.2,-125.3 2038.2,-132.3"/>
</g>
<!-- PageAddOrderComponent -->
<g id="node36" class="node">
<title>PageAddOrderComponent</title>
<polygon fill="#ffffb3" stroke="black" points="1773.8,-84.8 1608.2,-84.8 1608.2,-48.8 1773.8,-48.8 1773.8,-84.8"/>
<text text-anchor="middle" x="1691" y="-62.6" font-family="Times,serif" font-size="14.00">PageAddOrderComponent</text>
</g>
<!-- PageAddOrderComponent&#45;&gt;OrdersModule -->
<g id="edge32" class="edge">
<title>PageAddOrderComponent&#45;&gt;OrdersModule</title>
<path fill="none" stroke="black" d="M1691,-85.09C1691,-107.01 1691,-140.8 1691,-140.8 1691,-140.8 2038.03,-140.8 2038.03,-140.8"/>
<polygon fill="black" stroke="black" points="2038.03,-144.3 2048.03,-140.8 2038.03,-137.3 2038.03,-144.3"/>
</g>
<!-- PageEditOrderComponent -->
<g id="node37" class="node">
<title>PageEditOrderComponent</title>
<polygon fill="#ffffb3" stroke="black" points="2271.03,-84.8 2106.97,-84.8 2106.97,-48.8 2271.03,-48.8 2271.03,-84.8"/>
<text text-anchor="middle" x="2189" y="-62.6" font-family="Times,serif" font-size="14.00">PageEditOrderComponent</text>
</g>
<!-- PageEditOrderComponent&#45;&gt;OrdersModule -->
<g id="edge33" class="edge">
<title>PageEditOrderComponent&#45;&gt;OrdersModule</title>
<path fill="none" stroke="black" d="M2126.28,-85.02C2126.28,-85.02 2126.28,-106.53 2126.28,-106.53"/>
<polygon fill="black" stroke="black" points="2122.78,-106.53 2126.28,-116.53 2129.78,-106.53 2122.78,-106.53"/>
</g>
<!-- PageListOrdersComponent -->
<g id="node38" class="node">
<title>PageListOrdersComponent</title>
<polygon fill="#ffffb3" stroke="black" points="2089.42,-84.8 1920.58,-84.8 1920.58,-48.8 2089.42,-48.8 2089.42,-84.8"/>
<text text-anchor="middle" x="2005" y="-62.6" font-family="Times,serif" font-size="14.00">PageListOrdersComponent</text>
</g>
<!-- PageListOrdersComponent&#45;&gt;OrdersModule -->
<g id="edge34" class="edge">
<title>PageListOrdersComponent&#45;&gt;OrdersModule</title>
<path fill="none" stroke="black" d="M2068.69,-85.02C2068.69,-85.02 2068.69,-106.53 2068.69,-106.53"/>
<polygon fill="black" stroke="black" points="2065.19,-106.53 2068.69,-116.53 2072.19,-106.53 2065.19,-106.53"/>
</g>
<!-- OrdersRoutingModule -->
<g id="node40" class="node">
<title>OrdersRoutingModule</title>
<polygon fill="#8dd3c7" stroke="black" points="2437.27,-84.8 2434.27,-88.8 2413.27,-88.8 2410.27,-84.8 2294.73,-84.8 2294.73,-48.8 2437.27,-48.8 2437.27,-84.8"/>
<text text-anchor="middle" x="2366" y="-62.6" font-family="Times,serif" font-size="14.00">OrdersRoutingModule</text>
</g>
<!-- OrdersRoutingModule&#45;&gt;OrdersModule -->
<g id="edge35" class="edge">
<title>OrdersRoutingModule&#45;&gt;OrdersModule</title>
<path fill="none" stroke="black" d="M2366,-84.82C2366,-102.17 2366,-125.8 2366,-125.8 2366,-125.8 2155.71,-125.8 2155.71,-125.8"/>
<polygon fill="black" stroke="black" points="2155.71,-122.3 2145.71,-125.8 2155.71,-129.3 2155.71,-122.3"/>
</g>
<!-- SharedModule -->
<g id="node41" class="node">
<title>SharedModule</title>
<polygon fill="#8dd3c7" stroke="black" points="2554.43,-84.8 2551.43,-88.8 2530.43,-88.8 2527.43,-84.8 2455.57,-84.8 2455.57,-48.8 2554.43,-48.8 2554.43,-84.8"/>
<text text-anchor="middle" x="2505" y="-62.6" font-family="Times,serif" font-size="14.00">SharedModule</text>
</g>
<!-- SharedModule&#45;&gt;IconsModule  -->
<g id="edge44" class="edge">
<title>SharedModule&#45;&gt;IconsModule </title>
<path fill="none" stroke="black" stroke-dasharray="5,2" d="M2475.47,-85C2475.47,-90.83 2475.47,-95.8 2475.47,-95.8 2475.47,-95.8 1397.56,-95.8 1397.56,-95.8 1397.56,-95.8 1397.56,-106.67 1397.56,-106.67"/>
<polygon fill="black" stroke="black" points="1394.06,-106.67 1397.56,-116.67 1401.06,-106.67 1394.06,-106.67"/>
</g>
<!-- SharedModule&#45;&gt;TemplatesModule  -->
<g id="edge47" class="edge">
<title>SharedModule&#45;&gt;TemplatesModule </title>
<path fill="none" stroke="black" stroke-dasharray="5,2" d="M2495.16,-84.93C2495.16,-95.51 2495.16,-106.8 2495.16,-106.8 2495.16,-106.8 1527.23,-106.8 1527.23,-106.8 1527.23,-106.8 1527.23,-107.78 1527.23,-107.78"/>
<polygon fill="black" stroke="black" points="1523.73,-106.59 1527.23,-116.59 1530.73,-106.59 1523.73,-106.59"/>
</g>
<!-- SharedModule&#45;&gt;OrdersModule -->
<g id="edge36" class="edge">
<title>SharedModule&#45;&gt;OrdersModule</title>
<path fill="none" stroke="black" d="M2514.84,-85.02C2514.84,-105.17 2514.84,-134.8 2514.84,-134.8 2514.84,-134.8 2155.75,-134.8 2155.75,-134.8"/>
<polygon fill="black" stroke="black" points="2155.75,-131.3 2145.75,-134.8 2155.75,-138.3 2155.75,-131.3"/>
</g>
<!-- BtnComponent  -->
<g id="node49" class="node">
<title>BtnComponent </title>
<polygon fill="#fb8072" stroke="black" points="2699.56,-152.8 2594.44,-152.8 2594.44,-116.8 2699.56,-116.8 2699.56,-152.8"/>
<text text-anchor="middle" x="2647" y="-130.6" font-family="Times,serif" font-size="14.00">BtnComponent </text>
</g>
<!-- SharedModule&#45;&gt;BtnComponent  -->
<g id="edge43" class="edge">
<title>SharedModule&#45;&gt;BtnComponent </title>
<path fill="none" stroke="black" stroke-dasharray="5,2" d="M2534.53,-85.05C2534.53,-107.82 2534.53,-143.8 2534.53,-143.8 2534.53,-143.8 2584.39,-143.8 2584.39,-143.8"/>
<polygon fill="black" stroke="black" points="2584.39,-147.3 2594.39,-143.8 2584.39,-140.3 2584.39,-147.3"/>
</g>
<!-- StateDirective  -->
<g id="node50" class="node">
<title>StateDirective </title>
<polygon fill="#fb8072" stroke="black" points="3072.58,-152.8 2973.42,-152.8 2973.42,-116.8 3072.58,-116.8 3072.58,-152.8"/>
<text text-anchor="middle" x="3023" y="-130.6" font-family="Times,serif" font-size="14.00">StateDirective </text>
</g>
<!-- SharedModule&#45;&gt;StateDirective  -->
<g id="edge45" class="edge">
<title>SharedModule&#45;&gt;StateDirective </title>
<path fill="none" stroke="black" stroke-dasharray="5,2" d="M2554.67,-71.8C2684.32,-71.8 3023,-71.8 3023,-71.8 3023,-71.8 3023,-106.58 3023,-106.58"/>
<polygon fill="black" stroke="black" points="3019.5,-106.58 3023,-116.58 3026.5,-106.58 3019.5,-106.58"/>
</g>
<!-- TableLightComponent  -->
<g id="node51" class="node">
<title>TableLightComponent </title>
<polygon fill="#fb8072" stroke="black" points="2955.53,-152.8 2808.47,-152.8 2808.47,-116.8 2955.53,-116.8 2955.53,-152.8"/>
<text text-anchor="middle" x="2882" y="-130.6" font-family="Times,serif" font-size="14.00">TableLightComponent </text>
</g>
<!-- SharedModule&#45;&gt;TableLightComponent  -->
<g id="edge46" class="edge">
<title>SharedModule&#45;&gt;TableLightComponent </title>
<path fill="none" stroke="black" stroke-dasharray="5,2" d="M2554.29,-75.8C2656.48,-75.8 2882,-75.8 2882,-75.8 2882,-75.8 2882,-106.78 2882,-106.78"/>
<polygon fill="black" stroke="black" points="2878.5,-106.78 2882,-116.78 2885.5,-106.78 2878.5,-106.78"/>
</g>
<!-- TotalPipe  -->
<g id="node52" class="node">
<title>TotalPipe </title>
<polygon fill="#fb8072" stroke="black" points="2790.93,-152.8 2717.07,-152.8 2717.07,-116.8 2790.93,-116.8 2790.93,-152.8"/>
<text text-anchor="middle" x="2754" y="-130.6" font-family="Times,serif" font-size="14.00">TotalPipe </text>
</g>
<!-- SharedModule&#45;&gt;TotalPipe  -->
<g id="edge48" class="edge">
<title>SharedModule&#45;&gt;TotalPipe </title>
<path fill="none" stroke="black" stroke-dasharray="5,2" d="M2554.49,-80.8C2627.11,-80.8 2754,-80.8 2754,-80.8 2754,-80.8 2754,-106.52 2754,-106.52"/>
<polygon fill="black" stroke="black" points="2750.5,-106.52 2754,-116.52 2757.5,-106.52 2750.5,-106.52"/>
</g>
<!-- PageNotFoundComponent -->
<g id="node42" class="node">
<title>PageNotFoundComponent</title>
<polygon fill="#ffffb3" stroke="black" points="6321.83,-84.8 6156.17,-84.8 6156.17,-48.8 6321.83,-48.8 6321.83,-84.8"/>
<text text-anchor="middle" x="6239" y="-62.6" font-family="Times,serif" font-size="14.00">PageNotFoundComponent</text>
</g>
<!-- PageNotFoundModule -->
<g id="node43" class="node">
<title>PageNotFoundModule</title>
<polygon fill="#8dd3c7" stroke="black" points="6209.55,-152.8 6206.55,-156.8 6185.55,-156.8 6182.55,-152.8 6066.45,-152.8 6066.45,-116.8 6209.55,-116.8 6209.55,-152.8"/>
<text text-anchor="middle" x="6138" y="-130.6" font-family="Times,serif" font-size="14.00">PageNotFoundModule</text>
</g>
<!-- PageNotFoundComponent&#45;&gt;PageNotFoundModule -->
<g id="edge37" class="edge">
<title>PageNotFoundComponent&#45;&gt;PageNotFoundModule</title>
<path fill="none" stroke="black" d="M6183.06,-85.02C6183.06,-85.02 6183.06,-106.53 6183.06,-106.53"/>
<polygon fill="black" stroke="black" points="6179.56,-106.53 6183.06,-116.53 6186.56,-106.53 6179.56,-106.53"/>
</g>
<!-- PageNotFoundRoutingModule -->
<g id="node44" class="node">
<title>PageNotFoundRoutingModule</title>
<polygon fill="#8dd3c7" stroke="black" points="6132.17,-84.8 6129.17,-88.8 6108.17,-88.8 6105.17,-84.8 5943.83,-84.8 5943.83,-48.8 6132.17,-48.8 6132.17,-84.8"/>
<text text-anchor="middle" x="6038" y="-62.6" font-family="Times,serif" font-size="14.00">PageNotFoundRoutingModule</text>
</g>
<!-- PageNotFoundRoutingModule&#45;&gt;PageNotFoundModule -->
<g id="edge38" class="edge">
<title>PageNotFoundRoutingModule&#45;&gt;PageNotFoundModule</title>
<path fill="none" stroke="black" d="M6099.28,-85.02C6099.28,-85.02 6099.28,-106.53 6099.28,-106.53"/>
<polygon fill="black" stroke="black" points="6095.78,-106.53 6099.28,-116.53 6102.78,-106.53 6095.78,-106.53"/>
</g>
<!-- BtnComponent -->
<g id="node45" class="node">
<title>BtnComponent</title>
<polygon fill="#ffffb3" stroke="black" points="3198.56,-152.8 3097.44,-152.8 3097.44,-116.8 3198.56,-116.8 3198.56,-152.8"/>
<text text-anchor="middle" x="3148" y="-130.6" font-family="Times,serif" font-size="14.00">BtnComponent</text>
</g>
<!-- BtnComponent&#45;&gt;SharedModule -->
<g id="edge39" class="edge">
<title>BtnComponent&#45;&gt;SharedModule</title>
<path fill="none" stroke="black" d="M3148,-116.58C3148,-96.43 3148,-66.8 3148,-66.8 3148,-66.8 2564.39,-66.8 2564.39,-66.8"/>
<polygon fill="black" stroke="black" points="2564.39,-63.3 2554.39,-66.8 2564.39,-70.3 2564.39,-63.3"/>
</g>
<!-- StateDirective -->
<g id="node46" class="node">
<title>StateDirective</title>
<polygon fill="#ffffb3" stroke="black" points="3563.08,-152.8 3466.92,-152.8 3466.92,-116.8 3563.08,-116.8 3563.08,-152.8"/>
<text text-anchor="middle" x="3515" y="-130.6" font-family="Times,serif" font-size="14.00">StateDirective</text>
</g>
<!-- StateDirective&#45;&gt;SharedModule -->
<g id="edge40" class="edge">
<title>StateDirective&#45;&gt;SharedModule</title>
<path fill="none" stroke="black" d="M3515,-116.42C3515,-92.52 3515,-53.8 3515,-53.8 3515,-53.8 2564.4,-53.8 2564.4,-53.8"/>
<polygon fill="black" stroke="black" points="2564.4,-50.3 2554.4,-53.8 2564.4,-57.3 2564.4,-50.3"/>
</g>
<!-- TableLightComponent -->
<g id="node47" class="node">
<title>TableLightComponent</title>
<polygon fill="#ffffb3" stroke="black" points="3448.53,-152.8 3305.47,-152.8 3305.47,-116.8 3448.53,-116.8 3448.53,-152.8"/>
<text text-anchor="middle" x="3377" y="-130.6" font-family="Times,serif" font-size="14.00">TableLightComponent</text>
</g>
<!-- TableLightComponent&#45;&gt;SharedModule -->
<g id="edge41" class="edge">
<title>TableLightComponent&#45;&gt;SharedModule</title>
<path fill="none" stroke="black" d="M3377,-116.55C3377,-93.78 3377,-57.8 3377,-57.8 3377,-57.8 2564.38,-57.8 2564.38,-57.8"/>
<polygon fill="black" stroke="black" points="2564.38,-54.3 2554.38,-57.8 2564.38,-61.3 2564.38,-54.3"/>
</g>
<!-- TotalPipe -->
<g id="node48" class="node">
<title>TotalPipe</title>
<polygon fill="#ffffb3" stroke="black" points="3287.44,-152.8 3216.56,-152.8 3216.56,-116.8 3287.44,-116.8 3287.44,-152.8"/>
<text text-anchor="middle" x="3252" y="-130.6" font-family="Times,serif" font-size="14.00">TotalPipe</text>
</g>
<!-- TotalPipe&#45;&gt;SharedModule -->
<g id="edge42" class="edge">
<title>TotalPipe&#45;&gt;SharedModule</title>
<path fill="none" stroke="black" d="M3252,-116.63C3252,-95.3 3252,-62.8 3252,-62.8 3252,-62.8 2564.3,-62.8 2564.3,-62.8"/>
<polygon fill="black" stroke="black" points="2564.3,-59.3 2554.3,-62.8 2564.3,-66.3 2564.3,-59.3"/>
</g>
<!-- TemplateContainerComponent -->
<g id="node53" class="node">
<title>TemplateContainerComponent</title>
<polygon fill="#ffffb3" stroke="black" points="6764.9,-84.8 6575.1,-84.8 6575.1,-48.8 6764.9,-48.8 6764.9,-84.8"/>
<text text-anchor="middle" x="6670" y="-62.6" font-family="Times,serif" font-size="14.00">TemplateContainerComponent</text>
</g>
<!-- TemplatesModule -->
<g id="node55" class="node">
<title>TemplatesModule</title>
<polygon fill="#8dd3c7" stroke="black" points="6520.86,-152.8 6517.86,-156.8 6496.86,-156.8 6493.86,-152.8 6403.14,-152.8 6403.14,-116.8 6520.86,-116.8 6520.86,-152.8"/>
<text text-anchor="middle" x="6462" y="-130.6" font-family="Times,serif" font-size="14.00">TemplatesModule</text>
</g>
<!-- TemplateContainerComponent&#45;&gt;TemplatesModule -->
<g id="edge49" class="edge">
<title>TemplateContainerComponent&#45;&gt;TemplatesModule</title>
<path fill="none" stroke="black" d="M6701.65,-85.07C6701.65,-103.36 6701.65,-128.8 6701.65,-128.8 6701.65,-128.8 6530.93,-128.8 6530.93,-128.8"/>
<polygon fill="black" stroke="black" points="6530.93,-125.3 6520.93,-128.8 6530.93,-132.3 6530.93,-125.3"/>
</g>
<!-- TemplateFullWidthComponent -->
<g id="node54" class="node">
<title>TemplateFullWidthComponent</title>
<polygon fill="#ffffb3" stroke="black" points="6556.75,-84.8 6365.25,-84.8 6365.25,-48.8 6556.75,-48.8 6556.75,-84.8"/>
<text text-anchor="middle" x="6461" y="-62.6" font-family="Times,serif" font-size="14.00">TemplateFullWidthComponent</text>
</g>
<!-- TemplateFullWidthComponent&#45;&gt;TemplatesModule -->
<g id="edge50" class="edge">
<title>TemplateFullWidthComponent&#45;&gt;TemplatesModule</title>
<path fill="none" stroke="black" d="M6462,-85.02C6462,-85.02 6462,-106.53 6462,-106.53"/>
<polygon fill="black" stroke="black" points="6458.5,-106.53 6462,-116.53 6465.5,-106.53 6458.5,-106.53"/>
</g>
<!-- TemplateContainerComponent  -->
<g id="node56" class="node">
<title>TemplateContainerComponent </title>
<polygon fill="#fb8072" stroke="black" points="6768.4,-220.8 6575.6,-220.8 6575.6,-184.8 6768.4,-184.8 6768.4,-220.8"/>
<text text-anchor="middle" x="6672" y="-198.6" font-family="Times,serif" font-size="14.00">TemplateContainerComponent </text>
</g>
<!-- TemplatesModule&#45;&gt;TemplateContainerComponent  -->
<g id="edge51" class="edge">
<title>TemplatesModule&#45;&gt;TemplateContainerComponent </title>
<path fill="none" stroke="black" stroke-dasharray="5,2" d="M6521.3,-140.8C6572.6,-140.8 6638.6,-140.8 6638.6,-140.8 6638.6,-140.8 6638.6,-174.53 6638.6,-174.53"/>
<polygon fill="black" stroke="black" points="6635.1,-174.53 6638.6,-184.53 6642.1,-174.53 6635.1,-174.53"/>
</g>
<!-- TemplateFullWidthComponent  -->
<g id="node57" class="node">
<title>TemplateFullWidthComponent </title>
<polygon fill="#fb8072" stroke="black" points="6557.75,-220.8 6362.25,-220.8 6362.25,-184.8 6557.75,-184.8 6557.75,-220.8"/>
<text text-anchor="middle" x="6460" y="-198.6" font-family="Times,serif" font-size="14.00">TemplateFullWidthComponent </text>
</g>
<!-- TemplatesModule&#45;&gt;TemplateFullWidthComponent  -->
<g id="edge52" class="edge">
<title>TemplatesModule&#45;&gt;TemplateFullWidthComponent </title>
<path fill="none" stroke="black" stroke-dasharray="5,2" d="M6462,-153.02C6462,-153.02 6462,-174.53 6462,-174.53"/>
<polygon fill="black" stroke="black" points="6458.5,-174.53 6462,-184.53 6465.5,-174.53 6458.5,-174.53"/>
</g>
<!-- UiComponent -->
<g id="node58" class="node">
<title>UiComponent</title>
<polygon fill="#ffffb3" stroke="black" points="6904.83,-84.8 6809.17,-84.8 6809.17,-48.8 6904.83,-48.8 6904.83,-84.8"/>
<text text-anchor="middle" x="6857" y="-62.6" font-family="Times,serif" font-size="14.00">UiComponent</text>
</g>
<!-- UiModule -->
<g id="node59" class="node">
<title>UiModule</title>
<polygon fill="#8dd3c7" stroke="black" points="6893.55,-152.8 6890.55,-156.8 6869.55,-156.8 6866.55,-152.8 6820.45,-152.8 6820.45,-116.8 6893.55,-116.8 6893.55,-152.8"/>
<text text-anchor="middle" x="6857" y="-130.6" font-family="Times,serif" font-size="14.00">UiModule</text>
</g>
<!-- UiComponent&#45;&gt;UiModule -->
<g id="edge53" class="edge">
<title>UiComponent&#45;&gt;UiModule</title>
<path fill="none" stroke="black" d="M6857,-85.02C6857,-85.02 6857,-106.53 6857,-106.53"/>
<polygon fill="black" stroke="black" points="6853.5,-106.53 6857,-116.53 6860.5,-106.53 6853.5,-106.53"/>
</g>
<!-- UiComponent  -->
<g id="node60" class="node">
<title>UiComponent </title>
<polygon fill="#fb8072" stroke="black" points="6906.33,-220.8 6807.67,-220.8 6807.67,-184.8 6906.33,-184.8 6906.33,-220.8"/>
<text text-anchor="middle" x="6857" y="-198.6" font-family="Times,serif" font-size="14.00">UiComponent </text>
</g>
<!-- UiModule&#45;&gt;UiComponent  -->
<g id="edge54" class="edge">
<title>UiModule&#45;&gt;UiComponent </title>
<path fill="none" stroke="black" stroke-dasharray="5,2" d="M6857,-153.02C6857,-153.02 6857,-174.53 6857,-174.53"/>
<polygon fill="black" stroke="black" points="6853.5,-174.53 6857,-184.53 6860.5,-174.53 6853.5,-174.53"/>
</g>
</g>
</svg>
